<?xml version="1.0" encoding="utf-8"?>
<!-- Generator: Adobe Illustrator 21.0.0, SVG Export Plug-In . SVG Version: 6.00 Build 0)  -->
<svg version="1.1" id="图层_1" xmlns="http://www.w3.org/2000/svg" xmlns:xlink="http://www.w3.org/1999/xlink" x="0px" y="0px"
	 viewBox="0 0 52 52" style="enable-background:new 0 0 52 52;" xml:space="preserve">
<style type="text/css">
	.st0{fill:#B4BBDD;}
	.st1{filter:url(#Adobe_OpacityMaskFilter);}
	.st2{fill:#FFFFFF;}
	.st3{mask:url(#mask-2);fill:#FFFFFF;}
	.st4{fill:#FFFFFF;fill-opacity:0.2;}
	.st5{filter:url(#Adobe_OpacityMaskFilter_1_);}
	.st6{mask:url(#mask-4);fill:#FFFFFF;}
</style>
<title>ALL</title>
<desc>Created with Sketch.</desc>
<g id="Page-1">
	<g id="iPhone-XS" transform="translate(-299.000000, -893.000000)">
		<g id="第四屏" transform="translate(0.000000, 705.000000)">
			<g id="分组-4-copy-5" transform="translate(24.000000, 188.000000)">
				<g id="分组-6-copy-4" transform="translate(275.000000, 0.000000)">
					<g id="ALL">
						<path id="矩形" class="st0" d="M26,0L26,0c14.4,0,26,11.6,26,26l0,0c0,14.4-11.6,26-26,26l0,0C11.6,52,0,40.4,0,26l0,0
							C0,11.6,11.6,0,26,0z"/>
						<g id="分组" transform="translate(11.000000, 11.000000)">
							<g transform="translate(0.000000, 0.053200)">
								<g id="Clip-2">
								</g>
								<defs>
									<filter id="Adobe_OpacityMaskFilter" filterUnits="userSpaceOnUse" x="0" y="0.9" width="27.5" height="27.5">
										<feColorMatrix  type="matrix" values="1 0 0 0 0  0 1 0 0 0  0 0 1 0 0  0 0 0 1 0"/>
									</filter>
								</defs>
								<mask maskUnits="userSpaceOnUse" x="0" y="0.9" width="27.5" height="27.5" id="mask-2">
									<g class="st1">
										<polygon id="path-1" class="st2" points="0,0.9 27.5,0.9 27.5,28.4 0,28.4 										"/>
									</g>
								</mask>
								<path id="Fill-1" class="st3" d="M25,0.9c1.4,0,2.5,1.1,2.5,2.5v7.5c0,1.4-1.1,2.5-2.5,2.5h-7.5c-1.4,0-2.5-1.1-2.5-2.5V3.4
									c0-1.4,1.1-2.5,2.5-2.5H25z M16.5,11.9H26V2.4h-9.5V11.9z M2.5,15.9H10c1.4,0,2.5,1.1,2.5,2.5v7.5c0,1.4-1.1,2.5-2.5,2.5
									H2.5c-1.4,0-2.5-1.1-2.5-2.5v-7.5C0,17.1,1.1,15.9,2.5,15.9z M1.5,26.9H11v-9.5H1.5V26.9z M2.5,0.9H10
									c1.4,0,2.5,1.1,2.5,2.5v7.5c0,1.4-1.1,2.5-2.5,2.5H2.5c-1.4,0-2.5-1.1-2.5-2.5V3.4C0,2.1,1.1,0.9,2.5,0.9z M1.5,11.9H11V2.4
									H1.5V11.9z"/>
							</g>
							<path id="Fill-3" class="st4" d="M23.9,17.8l4.6,4.6c0.6,0.6,0.6,1.5,0,2.1l-0.4,0.4l-4.6,4.6c-0.6,0.6-1.5,0.6-2.1,0
								l-0.4-0.4l-4.6-4.6c-0.6-0.6-0.6-1.5,0-2.1l0.4-0.4l4.6-4.6c0.6-0.6,1.5-0.6,2.1,0L23.9,17.8z"/>
							<g transform="translate(13.000000, 14.053200)">
								<g id="Clip-6">
								</g>
								<defs>
									<filter id="Adobe_OpacityMaskFilter_1_" filterUnits="userSpaceOnUse" x="0.4" y="0.4" width="15.6" height="15.6">
										<feColorMatrix  type="matrix" values="1 0 0 0 0  0 1 0 0 0  0 0 1 0 0  0 0 0 1 0"/>
									</filter>
								</defs>
								<mask maskUnits="userSpaceOnUse" x="0.4" y="0.4" width="15.6" height="15.6" id="mask-4">
									<g class="st5">
										<polygon id="path-3" class="st2" points="0.4,0.4 16.1,0.4 16.1,16 0.4,16 										"/>
									</g>
								</mask>
								<path id="Fill-5" class="st6" d="M10,1.1l5.3,5.3c1,1,1,2.6,0,3.5L10,15.3c-1,1-2.6,1-3.5,0L1.2,10c-1-1-1-2.6,0-3.5
									l5.3-5.3C7.5,0.1,9,0.1,10,1.1z M8.2,1.4L1.4,8.1l6.7,6.8l6.8-6.8L8.2,1.4z"/>
							</g>
						</g>
					</g>
				</g>
			</g>
		</g>
	</g>
</g>
</svg>
