<?xml version="1.0" encoding="UTF-8"?>
<svg width="52px" height="52px" viewBox="0 0 52 52" version="1.1" xmlns="http://www.w3.org/2000/svg" xmlns:xlink="http://www.w3.org/1999/xlink">
    <!-- Generator: Sketch 52.5 (67469) - http://www.bohemiancoding.com/sketch -->
    <title>Family</title>
    <desc>Created with Sketch.</desc>
    <defs>
        <polygon id="path-1" points="0.6131 0.01 30.3877913 0.01 30.3877913 16.27205 0.6131 16.27205"></polygon>
        <polygon id="path-3" points="0.3655 0.16135 24.6185 0.16135 24.6185 23 0.3655 23"></polygon>
    </defs>
    <g id="Page-1" stroke="none" stroke-width="1" fill="none" fill-rule="evenodd">
        <g id="iPhone-XS" transform="translate(-230.000000, -787.000000)">
            <g id="第四屏" transform="translate(0.000000, 705.000000)">
                <g id="分组-4" transform="translate(24.000000, 82.000000)">
                    <g id="分组-6-copy-3" transform="translate(206.000000, 0.000000)">
                        <g id="Family">
                            <rect id="矩形" fill="#F99696" x="0" y="0" width="52" height="52" rx="26"></rect>
                            <g id="分组" transform="translate(6.000000, 10.000000)">
                                <g transform="translate(5.000000, 0.990000)">
                                   
                                    <g id="Clip-2"></g>
                                    <path d="M30.0441,14.3908 L16.2381,0.3368 C15.8031,-0.0992 15.1811,-0.0992 14.7461,0.3368 L0.9401,14.3908 C0.5041,14.8268 0.5041,15.5108 0.9401,15.9458 C1.3761,16.3808 1.9971,16.3808 2.4331,15.9458 L15.5541,2.6378 L28.6761,15.9458 C28.8621,16.1318 29.1731,16.2568 29.4221,16.2568 C29.6711,16.2568 29.9821,16.1318 30.1681,15.8838 C30.4791,15.5108 30.4791,14.8268 30.0441,14.3908" id="Fill-1" stroke="#FAA1A1" stroke-width="0.5" fill="#FFFFFF" mask="url(#mask-2)"></path>
                                </g>
                                <g transform="translate(8.000000, 7.990000)">
                                   
                                    <g id="Clip-4"></g>
                                    <path d="M17.9025,5.9606 C17.9025,6.3956 18.0895,6.7696 18.4625,6.9556 C18.8355,7.1426 19.2085,7.1426 19.5815,6.9556 C19.9545,6.7696 20.1415,6.3336 20.1415,5.9606 C20.1415,5.5246 19.9545,5.1516 19.5815,4.9656 C19.2085,4.7786 18.8355,4.7786 18.4625,4.9656 C18.1515,5.1516 17.9025,5.5876 17.9025,5.9606 Z" id="路径" stroke="#FAA1A1" stroke-width="0.5" fill="#FFFFFF" opacity="0.6" mask="url(#mask-4)"></path>
                                    <path d="M15.0415,0.4876 C14.6065,0.0526 13.9845,0.0526 13.5485,0.4876 C13.1135,0.9236 13.1135,1.6076 13.5485,2.0426 L16.1615,4.7786 C16.3475,5.0276 16.6585,5.0896 16.9075,5.0896 C17.1555,5.0896 17.4665,4.9656 17.6535,4.7786 C18.0895,4.3436 18.0895,3.6596 17.6535,3.2246 L15.0415,0.4876 Z" id="路径" stroke="#FAA1A1" stroke-width="0.5" fill="#FFFFFF" opacity="0.6" mask="url(#mask-4)"></path>
                                    <path d="M23.5615,8.5106 C23.0015,8.5106 22.5045,9.0076 22.5045,9.6296 L22.5045,20.7616 L16.7825,20.7616 L16.7825,12.6146 C16.7825,11.9926 16.2855,11.4956 15.7255,11.4956 L9.2585,11.4956 C8.6985,11.4956 8.2005,11.9926 8.2005,12.6146 L8.2005,20.7616 L2.4795,20.7616 L2.4795,9.9406 C2.4795,9.3186 1.9825,8.8206 1.4225,8.8206 C0.8625,8.8206 0.3655,9.3186 0.3655,9.9406 L0.3655,21.8806 C0.3655,22.5026 0.8625,23.0006 1.4225,23.0006 L9.2585,23.0006 C9.8185,23.0006 10.3155,22.5026 10.3155,21.8806 L10.3155,13.7336 L14.6685,13.7336 L14.6685,21.8806 C14.6685,22.5026 15.1665,23.0006 15.7255,23.0006 L23.5615,23.0006 C24.1215,23.0006 24.6185,22.5026 24.6185,21.8806 L24.6185,9.6296 C24.6185,9.0076 24.1215,8.5106 23.5615,8.5106 Z" id="路径" stroke="#FAA1A1" stroke-width="0.5" fill="#FFFFFF" mask="url(#mask-4)"></path>
                                </g>
                                <path d="M36.6798998,25.3484986 C36.6792082,26.1762181 37.3500236,26.8478497 38.1785153,26.8484974 C39.007007,26.8497927 39.6792055,26.1794565 39.6798971,25.3517369 L39.6798971,25.3484986 C39.6812802,24.520779 39.0104648,23.8491474 38.1812816,23.8484997 C37.3527899,23.8478521 36.6805913,24.5181883 36.6798998,25.3459079 L36.6798998,25.3484986 Z" id="Fill-5" fill="#FFFFFF" opacity="0.5"></path>
                                <path d="M0.0002,20.7455 C0.0002,21.5739356 0.671707488,22.2455 1.50019973,22.2455 C2.32869198,22.2455 3.00019947,21.5745838 3.00019947,20.7461482 L3.00019947,20.7455 C3.00089103,19.9170644 2.32938354,19.2455 1.50019973,19.2455 C0.671707488,19.2455 0.0002,19.9170644 0.0002,20.7455 Z" id="Fill-7" fill="#FFFFFF" opacity="0.5"></path>
                                <path d="M7.6774,3.7836 C7.6774,4.5026 8.2274,5.0846 8.9064,5.0846 C9.5854,5.0846 10.1354,4.5026 10.1354,3.7836 C10.1354,3.0646 9.5854,2.4816 8.9064,2.4816 C8.2274,2.4816 7.6774,3.0646 7.6774,3.7836" id="Fill-9" fill="#FFFFFF" opacity="0.5"></path>
                            </g>
                        </g>
                    </g>
                </g>
            </g>
        </g>
    </g>
</svg>