<?xml version="1.0" encoding="utf-8"?>
<!-- Generator: Adobe Illustrator 21.0.0, SVG Export Plug-In . SVG Version: 6.00 Build 0)  -->
<svg version="1.1" id="图层_1" xmlns="http://www.w3.org/2000/svg" xmlns:xlink="http://www.w3.org/1999/xlink" x="0px" y="0px"
	 viewBox="0 0 52 52" style="enable-background:new 0 0 52 52;" xml:space="preserve">
<style type="text/css">
	.st0{fill:#97E6A9;}
	.st1{filter:url(#Adobe_OpacityMaskFilter);}
	.st2{fill:#FFFFFF;}
	.st3{mask:url(#mask-2);fill:#FFFFFF;}
</style>
<title>分组 22</title>
<desc>Created with Sketch.</desc>
<g id="Page-1">
	<g id="iPhone-XS" transform="translate(-230.000000, -893.000000)">
		<g id="第四屏" transform="translate(0.000000, 705.000000)">
			<g id="分组-4-copy-5" transform="translate(24.000000, 188.000000)">
				<g id="分组-6-copy-3" transform="translate(199.000000, 0.000000)">
					<g id="分组-22" transform="translate(7.000000, 0.000000)">
						<path id="矩形" class="st0" d="M26,0L26,0c14.4,0,26,11.6,26,26l0,0c0,14.4-11.6,26-26,26l0,0C11.6,52,0,40.4,0,26l0,0
							C0,11.6,11.6,0,26,0z"/>
						<g id="分组" transform="translate(7.000000, 11.000000)">
							<g id="Clip-2">
							</g>
							<defs>
								<filter id="Adobe_OpacityMaskFilter" filterUnits="userSpaceOnUse" x="0" y="0" width="36.1" height="32.7">
									<feColorMatrix  type="matrix" values="1 0 0 0 0  0 1 0 0 0  0 0 1 0 0  0 0 0 1 0"/>
								</filter>
							</defs>
							<mask maskUnits="userSpaceOnUse" x="0" y="0" width="36.1" height="32.7" id="mask-2">
								<g class="st1">
									<polygon id="path-1" class="st2" points="0,0 36.1,0 36.1,32.7 0,32.7 									"/>
								</g>
							</mask>
							<path id="Fill-1" class="st3" d="M34.6,32.6L34.6,32.6l-0.2,0c-0.1,0-0.1,0-0.2,0h-0.5c-0.1,0-0.2-0.1-0.4-0.1
								c-1-0.3-1.6-1.3-1.5-2.3c0.1-1.2,0.4-2.2,0.9-3.1c0.2-0.3,0.4-0.6,0.6-0.9c0.1-0.1,0.3-0.3,0.5-0.3c0.2,0,0.4,0.1,0.5,0.3
								c0.3,0.3,0.5,0.6,0.7,1c0.4,0.9,0.7,1.9,0.9,2.8c0,0.1,0,0.1,0,0.2v0.5c0,0,0,0.1,0,0.1C35.9,31.8,35.4,32.3,34.6,32.6z
								 M35.2,23.4c0,0.5-0.4,0.9-0.9,0.9c-0.5,0-0.9-0.4-0.9-0.9V12.6c0-0.5,0.4-0.9,0.9-0.9c0.5,0,0.9,0.4,0.9,0.9V23.4L35.2,23.4
								z M29.7,9.1L29.7,9.1c1.1-0.3,2.3-0.5,3.4-0.8c0.5-0.1,0.9-0.5,1.1-1c0.2-0.8-0.3-1.5-1.1-1.7c-2.4-0.6-4.9-1.2-7.3-1.7
								c-2.4-0.6-4.8-1.2-7.3-1.7c-0.3-0.1-0.6-0.1-0.9,0c-2,0.5-4,1-6,1.4C8.7,4.1,5.9,4.8,3,5.5C2.3,5.7,1.9,6.2,1.9,6.9
								c0,0.7,0.4,1.2,1.1,1.4l13.8,3.3c0.4,0.1,0.8,0.2,1.2,0.3l0,0l0,0c0.2,0,0.3,0,0.4-0.1c1.8-0.4,3.6-0.9,5.4-1.3
								C25.7,10,27.7,9.5,29.7,9.1L29.7,9.1z M28.2,21.9L28.2,21.9c0.2-0.3,0.4-0.6,0.3-1c0-3,0-6,0-9v-0.5l-0.3,0.1
								c-1.5,0.4-3.1,0.7-4.6,1.1c-1.5,0.4-3,0.7-4.5,1.1c-0.5,0.1-1.2,0.2-1.8,0.1l-3.8-0.9c-1.8-0.4-3.7-0.9-5.5-1.3l-0.3-0.1
								l-0.2-0.1v0.5l0,3c0,2,0,3.9,0,5.9c0,0.6,0.2,1.1,0.7,1.5c0.1,0,0.1,0.1,0.2,0.1c0.1,0.1,0.2,0.2,0.3,0.3
								c0.7,0.5,1.5,0.9,2.6,1.2c1.5,0.5,3.1,0.8,4.9,0.9c0.6,0,1.3,0.1,1.9,0.1c1.9,0,3.6-0.2,5.2-0.5c1.5-0.3,2.6-0.7,3.7-1.3
								C27.4,22.7,27.8,22.4,28.2,21.9z M36,7.7L36,7.7c-0.4,1.3-1.2,2.2-2.4,2.5c-0.9,0.2-1.9,0.5-2.8,0.7
								c-0.4,0.1-0.4,0.3-0.4,0.5c0,1.3,0,2.7,0,4c0,1.8,0,3.6,0,5.5c0,1.4-0.5,2.5-1.6,3.4c-0.8,0.7-1.8,1.2-3.2,1.6
								c-1.2,0.4-2.6,0.6-4.2,0.8c-1.7,0.2-3.3,0.2-5,0.1c-1.9-0.1-4.1-0.3-6.3-1c-0.9-0.3-2.1-0.8-3-1.7c-0.9-0.9-1.4-1.9-1.4-3.2
								v-9.6c0-0.2,0-0.4-0.4-0.5c-0.9-0.2-1.9-0.4-2.8-0.7C1.2,9.8,0.2,8.7,0,7.3l0-0.7c0,0,0-0.1,0-0.1C0.2,5,1.2,4,2.5,3.7L9,2.1
								c2.2-0.5,4.4-1,6.6-1.6L17.7,0l0.6,0l0.5,0.1c1.7,0.4,3.3,0.8,5,1.2c3.2,0.8,6.5,1.5,9.7,2.3c1.3,0.3,2.1,1.1,2.5,2.5
								c0,0.1,0,0.1,0,0.2c0,0.1,0,0.1,0,0.2v0.7C36.1,7.4,36,7.5,36,7.7z"/>
						</g>
					</g>
				</g>
			</g>
		</g>
	</g>
</g>
</svg>
