<?xml version="1.0" encoding="utf-8"?>
<!-- Generator: Adobe Illustrator 21.0.0, SVG Export Plug-In . SVG Version: 6.00 Build 0)  -->
<svg version="1.1" id="图层_1" xmlns="http://www.w3.org/2000/svg" xmlns:xlink="http://www.w3.org/1999/xlink" x="0px" y="0px"
	 viewBox="0 0 52 52" style="enable-background:new 0 0 52 52;" xml:space="preserve">
<style type="text/css">
	.st0{fill:#F8ABD8;}
	.st1{opacity:0.6;fill:#FFFFFF;enable-background:new    ;}
	.st2{fill:#FFFFFF;}
</style>
<title>Wedding</title>
<desc>Created with Sketch.</desc>
<g id="Page-1">
	<g id="iPhone-XS" transform="translate(-93.000000, -787.000000)">
		<g id="第四屏" transform="translate(0.000000, 705.000000)">
			<g id="分组-4" transform="translate(24.000000, 82.000000)">
				<g id="分组-6-copy" transform="translate(68.000000, 0.000000)">
					<g id="Wedding" transform="translate(1.000000, 0.000000)">
						<path id="矩形" class="st0" d="M26,0L26,0c14.4,0,26,11.6,26,26l0,0c0,14.4-11.6,26-26,26l0,0C11.6,52,0,40.4,0,26l0,0
							C0,11.6,11.6,0,26,0z"/>
						<g id="分组" transform="translate(10.000000, 11.000000)">
							<path id="Fill-1" class="st1" d="M28.3,8.7c-0.8-0.8-1.7-1.2-2.8-1.3c-0.4,0-0.8,0.3-0.8,0.7c0,0.4,0.2,0.8,0.7,0.8
								c0.7,0.1,1.4,0.4,1.9,0.9c0.6,0.6,0.9,1.4,0.9,2.2c0,0.8-0.3,1.6-0.9,2.2L25.5,16c-0.3,0.3-0.3,0.8,0,1c0,0,0,0,0,0
								c0.1,0.1,0.3,0.2,0.5,0.2c0.2,0,0.4-0.1,0.5-0.2l1.8-1.8c0.9-0.9,1.4-2,1.4-3.3C29.7,10.7,29.2,9.6,28.3,8.7z M23.1,7.7
								c-0.5,0.2-1,0.5-1.3,0.9c-0.3,0.3-0.3,0.8,0,1l0,0c0.1,0.1,0.3,0.2,0.5,0.2c0.2,0,0.4-0.1,0.5-0.2c0.3-0.3,0.6-0.5,0.9-0.6
								c0.4-0.2,0.5-0.6,0.4-1C23.9,7.7,23.5,7.6,23.1,7.7z M2.6,0l0.9,0.8l1.2-0.3L4.2,1.7l0.7,1.1L3.7,2.6l-0.8,1L2.6,2.4L1.4,1.9
								l1.1-0.6L2.6,0z M8.1,1l0.6,0.5l0.7-0.2L9.1,1.9l0.4,0.6l-0.7,0L8.4,3L8.2,2.3L7.5,2.1l0.6-0.4L8.1,1z M1,5.2l0.6,0.5
								l0.7-0.2L2,6.1l0.4,0.6l-0.7,0L1.2,7.3L1,6.6L0.3,6.3l0.6-0.4L1,5.2z"/>
							<g>
								<path id="Fill-3_1_" class="st2" d="M6.1,12c-0.2,0-0.4,0-0.6,0c-1.6,0.2-4.2,1.1-4.2,5.8c0,5.1,8.3,10.8,9.7,10.8
									c2.4,0,9.7-5.7,9.7-10.8c0-4.3-2.5-5.3-4-5.5c-2.3-0.3-4.7,0.8-5.1,2c-0.1,0.3-0.4,0.5-0.7,0.5c-0.3,0-0.6-0.2-0.6-0.5
									C10.1,13.2,8.2,12,6.1,12 M11,29.9c-2.3,0-11-6.3-11-12.1c0-4.1,2-6.8,5.4-7.1c2.3-0.2,4.6,0.7,5.7,2.1
									c1.2-1.3,3.6-2.1,5.8-1.8c3.3,0.4,5.2,3,5.2,6.8C22.1,23.5,14.2,29.9,11,29.9"/>
								<path class="st2" d="M11,30C8.7,30-0.1,23.7-0.1,17.8c0-4.2,2-6.9,5.5-7.2c2.2-0.2,4.5,0.6,5.7,2.1c1.3-1.3,3.7-2,5.8-1.7
									c3.3,0.4,5.3,3,5.3,6.9C22.2,23.5,14.2,30,11,30z M6,10.8c-0.2,0-0.4,0-0.7,0c-3.3,0.3-5.3,3-5.3,7c0,5.8,8.7,12,10.9,12
									c3.2,0,11-6.4,11-12c0-3.7-1.9-6.2-5.1-6.7c-2.1-0.3-4.5,0.5-5.7,1.8L11.1,13L11,12.9C10,11.6,8,10.8,6,10.8z M11,28.7
									c-1.4,0-9.8-5.8-9.8-10.9c0-4.8,2.7-5.7,4.3-5.9c0.2,0,0.4,0,0.6,0c2.3,0,4.2,1.3,4.4,2.4c0.1,0.3,0.3,0.4,0.5,0.5
									c0,0,0,0,0,0c0.2,0,0.5-0.2,0.5-0.4c0.4-1.5,3.2-2.4,5.2-2.1c1.5,0.2,4.1,1.2,4.1,5.6C20.8,22.9,13.4,28.7,11,28.7z
									 M6.1,12.1c-0.2,0-0.4,0-0.6,0c-1.5,0.2-4.1,1.1-4.1,5.7c0,5,8.2,10.7,9.6,10.7c2.3,0,9.6-5.7,9.6-10.7c0-4.2-2.5-5.2-4-5.4
									c-2.3-0.3-4.6,0.8-5,2C11.6,14.8,11.3,15,11,15c-0.4,0-0.6-0.3-0.7-0.6C10,13.3,8.2,12.1,6.1,12.1z"/>
							</g>
							<g>
								<path id="Fill-5_1_" class="st2" d="M17.9,27c-0.3-0.2-0.3-0.7,0-0.9c0.2-0.3,0.7-0.3,0.9,0c0.2,0.2,0.3,0.2,0.7,0.2h0.1
									c2.8,0,11.7-8,11.7-14.6c0-3.8-1.6-6.2-4.5-6.5c-2.9-0.4-6.2,1.4-6.6,3.1c-0.1,0.3-0.3,0.5-0.6,0.5c-0.3,0-0.5-0.2-0.6-0.4
									c-0.7-1.9-4.4-4-7.3-3.6C9.3,5.1,8.1,6.9,8,10c0,0.4-0.3,0.6-0.7,0.6h0c-0.4,0-0.7-0.3-0.6-0.7c0.2-5.1,3.1-6.3,4.8-6.6
									c3.1-0.5,6.6,1.2,8.1,3.3C21,4.7,24.2,3.4,27,3.7c1.7,0.2,5.6,1.4,5.6,7.9c0,7.3-9.4,16-13,16h-0.1c0,0-0.1,0-0.1,0
									C18.9,27.6,18.5,27.5,17.9,27z"/>
								<path class="st2" d="M19.6,27.7L19.6,27.7c-0.1,0-0.2,0-0.2,0c-0.5,0-1,0-1.6-0.6v0c-0.3-0.3-0.3-0.8-0.1-1.1
									c0.3-0.3,0.8-0.3,1.1-0.1c0.2,0.2,0.2,0.2,0.6,0.2l0.1,0c2.8,0,11.6-7.9,11.6-14.5c0-3.8-1.5-6.1-4.4-6.4
									c-2.9-0.4-6.1,1.4-6.5,3.1c-0.1,0.3-0.4,0.5-0.7,0.6c-0.3,0-0.6-0.2-0.7-0.5c-0.7-1.9-4.3-4-7.2-3.5C9.4,5.1,8.2,7,8.1,10
									c0,0.4-0.3,0.7-0.8,0.7h0c-0.2,0-0.4-0.1-0.5-0.2c-0.1-0.1-0.2-0.3-0.2-0.5c0.2-5.2,3.1-6.4,4.9-6.7
									c3.1-0.5,6.6,1.2,8.1,3.2c1.5-2,4.8-3.2,7.5-2.8c1.7,0.2,5.7,1.5,5.7,8C32.7,18.9,23.3,27.7,19.6,27.7z M18,26.9
									c0.5,0.5,1,0.5,1.4,0.5c0,0,0.1,0,0.1,0h0.1c3.7,0,12.9-8.6,12.9-15.9c0-6.3-3.9-7.5-5.5-7.8c-2.7-0.4-6,0.9-7.4,2.9
									l-0.1,0.1l-0.1-0.1c-1.5-2-4.9-3.7-8-3.2C9.8,3.8,6.9,4.9,6.7,10c0,0.1,0,0.3,0.1,0.4c0.1,0.1,0.2,0.2,0.4,0.2h0
									c0.3,0,0.5-0.2,0.6-0.5C8,6.8,9.3,5,11.6,4.6c3-0.5,6.7,1.6,7.5,3.6c0.1,0.2,0.2,0.4,0.5,0.4c0,0,0,0,0.1,0
									c0.2,0,0.5-0.2,0.5-0.4c0.5-1.8,3.8-3.6,6.7-3.2c2.9,0.4,4.5,2.8,4.5,6.6c0,6.7-9,14.7-11.8,14.7h-0.1c-0.4,0-0.5,0-0.7-0.2
									c-0.2-0.2-0.6-0.2-0.8,0C17.7,26.4,17.7,26.7,18,26.9L18,26.9z"/>
							</g>
							<path id="Fill-7" class="st1" d="M18.2,19.5c-0.4-0.1-0.6-0.5-0.5-0.8c0.3-1.2,0.2-2.1-0.5-2.7c-0.6-0.5-1.5-0.7-2.2-0.4
								c-0.3,0.1-0.7,0-0.8-0.4c-0.1-0.3,0-0.7,0.4-0.9c1.2-0.4,2.6-0.2,3.5,0.7c0.6,0.6,1.5,1.8,0.9,4.1c-0.1,0.3-0.3,0.5-0.6,0.5
								C18.4,19.5,18.3,19.5,18.2,19.5z"/>
						</g>
					</g>
				</g>
			</g>
		</g>
	</g>
</g>
</svg>
