<?xml version="1.0" encoding="utf-8"?>
<!-- Generator: Adobe Illustrator 21.0.0, SVG Export Plug-In . SVG Version: 6.00 Build 0)  -->
<svg version="1.1" id="图层_1" xmlns="http://www.w3.org/2000/svg" xmlns:xlink="http://www.w3.org/1999/xlink" x="0px" y="0px"
	 viewBox="0 0 52 52" style="enable-background:new 0 0 52 52;" xml:space="preserve">
<style type="text/css">
	.st0{fill:#CBA1F0;}
	.st1{filter:url(#Adobe_OpacityMaskFilter);}
	.st2{fill:#FFFFFF;}
	.st3{mask:url(#mask-2);fill:#FFFFFF;}
</style>
<title>Birthday</title>
<desc>Created with Sketch.</desc>
<g id="Page-1">
	<g id="iPhone-XS" transform="translate(-299.000000, -787.000000)">
		<g id="第四屏" transform="translate(0.000000, 705.000000)">
			<g id="分组-4" transform="translate(24.000000, 82.000000)">
				<g id="分组-6-copy-4" transform="translate(275.000000, 0.000000)">
					<g id="Birthday">
						<path id="矩形" class="st0" d="M26,0L26,0c14.4,0,26,11.6,26,26l0,0c0,14.4-11.6,26-26,26l0,0C11.6,52,0,40.4,0,26l0,0
							C0,11.6,11.6,0,26,0z"/>
						<g id="分组" transform="translate(11.000000, 12.000000)">
							<g id="Clip-2">
							</g>
							<defs>
								<filter id="Adobe_OpacityMaskFilter" filterUnits="userSpaceOnUse" x="0" y="0" width="30.3" height="27.6">
									<feColorMatrix  type="matrix" values="1 0 0 0 0  0 1 0 0 0  0 0 1 0 0  0 0 0 1 0"/>
								</filter>
							</defs>
							<mask maskUnits="userSpaceOnUse" x="0" y="0" width="30.3" height="27.6" id="mask-2">
								<g class="st1">
									<polygon id="path-1" class="st2" points="0,0 30.3,0 30.3,27.6 0,27.6 									"/>
								</g>
							</mask>
							<path id="Fill-1" class="st3" d="M15.3,4c-0.4,0-0.8,0.4-0.8,0.8v5.8c0,0.4,0.4,0.8,0.8,0.8s0.8-0.4,0.8-0.8V4.8
								C16.1,4.4,15.8,4,15.3,4z M9,2.6c0.5,0,0.9-0.4,0.9-0.9V0.9C9.9,0.4,9.6,0,9,0S8.2,0.4,8.2,0.9v0.9C8.2,2.1,8.5,2.6,9,2.6z
								 M27,16.7c-1,0.4-1.6,1.5-2.1,2.5c-0.5,1-0.8,1.3-1.3,1.3c-0.4,0-0.8-0.4-1.3-1.3c-0.5-1.1-1.3-3-2.8-3c-1.5,0-2.3,1.8-2.8,3
								c-0.5,1-0.8,1.3-1.3,1.3c-0.4,0-0.8-0.4-1.3-1.3c-0.5-1.1-1.3-3-2.8-3s-2.3,1.8-2.8,3c-0.5,1-0.8,1.3-1.3,1.3
								c-0.4,0-0.8-0.4-1.3-1.3c-0.4-0.9-1.1-2-2.1-2.5v-3.3H27V16.7z M27,26.1H4.1v-7.9c0.1,0.3,0.3,0.5,0.4,0.6
								c0.5,1.1,1.4,2.6,3,2.6c1.5,0,2.3-1.5,2.8-2.6c0.5-1,0.8-1.6,1.3-1.6c0.4,0,0.8,0.6,1.3,1.6c0.5,1.1,1.3,2.6,2.8,2.6
								s2.3-1.5,2.8-2.6c0.5-1,0.8-1.6,1.3-1.6c0.5,0,0.8,0.6,1.3,1.6c0.5,1.1,1.3,2.6,2.8,2.6s2.4-1.5,3-2.6
								c0.1-0.3,0.3-0.5,0.4-0.6V26.1z M29.7,26.1h-1.4V13.7c0-1-0.8-1.8-1.8-1.8H4.4c-0.9,0-1.8,0.8-1.8,1.8v12.4H0.8
								c-0.4,0-0.8,0.4-0.8,0.8c0,0.4,0.4,0.8,0.8,0.8h28.8c0.4,0,0.8-0.4,0.8-0.8C30.4,26.5,30,26.1,29.7,26.1z M9,4
								C8.7,4,8.3,4.4,8.3,4.8v5.8c0,0.4,0.4,0.8,0.8,0.8s0.8-0.4,0.8-0.8V4.8C9.8,4.4,9.4,4,9,4z M21.7,2.6c0.5,0,0.9-0.4,0.9-0.9
								V0.9c0-0.5-0.4-0.9-0.9-0.9s-0.9,0.4-0.9,0.9v0.9C20.9,2.1,21.2,2.6,21.7,2.6z M15.3,2.6c0.5,0,0.9-0.4,0.9-0.9V0.9
								c0-0.5-0.4-0.9-0.9-0.9s-0.9,0.4-0.9,0.9v0.9C14.6,2.1,15,2.6,15.3,2.6z M21.7,4C21.4,4,21,4.4,21,4.8v5.8
								c0,0.4,0.4,0.8,0.8,0.8c0.4,0,0.8-0.4,0.8-0.8V4.8C22.5,4.4,22.1,4,21.7,4z"/>
						</g>
					</g>
				</g>
			</g>
		</g>
	</g>
</g>
</svg>
