<?xml version="1.0" encoding="utf-8"?>
<!-- Generator: Adobe Illustrator 21.0.0, SVG Export Plug-In . SVG Version: 6.00 Build 0)  -->
<svg version="1.1" id="图层_1" xmlns="http://www.w3.org/2000/svg" xmlns:xlink="http://www.w3.org/1999/xlink" x="0px" y="0px"
	 viewBox="0 0 52 52" style="enable-background:new 0 0 52 52;" xml:space="preserve">
<style type="text/css">
	.st0{fill:#F8CD72;}
	.st1{fill:#FFFFFF;fill-opacity:0.3;}
	.st2{fill:#FFFFFF;}
</style>
<title>Ceremony</title>
<desc>Created with Sketch.</desc>
<g id="Page-1">
	<g id="iPhone-XS" transform="translate(-162.000000, -893.000000)">
		<g id="第四屏" transform="translate(0.000000, 705.000000)">
			<g id="分组-4-copy-5" transform="translate(24.000000, 188.000000)">
				<g id="分组-6-copy-2" transform="translate(133.000000, 0.000000)">
					<g id="Ceremony" transform="translate(5.000000, 0.000000)">
						<path id="矩形" class="st0" d="M26,0L26,0c14.4,0,26,11.6,26,26l0,0c0,14.4-11.6,26-26,26l0,0C11.6,52,0,40.4,0,26l0,0
							C0,11.6,11.6,0,26,0z"/>
						<g id="分组" transform="translate(12.000000, 11.000000)">
							<polygon id="Fill-1" class="st1" points="14.6,25.2 16.1,25.2 16.1,19.4 14.6,19.4 							"/>
							<g transform="translate(0.000000, 0.683824)">
								<path id="Fill-2" class="st1" d="M23.7,29.6c0-2.8-4-4.8-9-4.8c1.1,0,4.5,1.1,4.5,4.8H23.7z"/>
								<path id="Fill-4" class="st1" d="M14.8,17.8c2.9,0,4.1-3.9,4.1-7.8l0-8.3h4.2l0,8.3C23.1,14.5,19.4,17.8,14.8,17.8"/>
								<path class="st2" d="M25.6,8.2c-0.2,0-0.4-0.1-0.6-0.3c-0.3-0.3-0.2-0.8,0.1-1.1c2.2-1.8,2.7-3.2,2.8-4.2
									c0-0.2-0.1-0.4-0.2-0.6c-0.2-0.2-0.4-0.3-0.6-0.3H12.9c-0.4,0-0.8-0.3-0.8-0.8s0.3-0.8,0.8-0.8h14.2c0.6,0,1.3,0.3,1.7,0.7
									c0.4,0.5,0.7,1.1,0.6,1.7C29.3,4,28.7,5.9,26.1,8C25.9,8.1,25.8,8.2,25.6,8.2z"/>
								<path class="st2" d="M10.8,1.8L10.8,1.8C10.3,1.8,10,1.4,10,1s0.3-0.8,0.8-0.8s0.8,0.3,0.8,0.8S11.2,1.8,10.8,1.8z"/>
								<path class="st2" d="M3.8,8.2c-0.2,0-0.4-0.1-0.5-0.2C3.2,7.8,0.9,5.5,0.2,3.3C-0.1,2.6,0,1.9,0.5,1.3c0.4-0.6,1.2-1,1.9-1
									h6.1c0.4,0,0.8,0.3,0.8,0.8S8.9,1.8,8.5,1.8H2.4c-0.3,0-0.5,0.1-0.7,0.4C1.5,2.4,1.5,2.6,1.6,2.9c0.6,1.8,2.8,4,2.8,4
									c0.3,0.3,0.3,0.8,0,1.1C4.2,8.1,4,8.2,3.8,8.2z"/>
								<path class="st2" d="M14.7,19.1c-6,0-8-4.7-8.6-6.7c-0.2-0.7-0.3-1.4-0.3-2.1V1.9c0-0.4,0.3-0.8,0.8-0.8s0.8,0.3,0.8,0.8
									v8.4c0,0.6,0.1,1.2,0.2,1.7c0.6,2.1,2.3,5.6,7.2,5.6c4.7,0,6.6-3.3,7.3-5.3c0.2-0.7,0.4-1.4,0.4-2.2V1.9
									c0-0.4,0.3-0.8,0.8-0.8s0.8,0.3,0.8,0.8v8.1c0,1-0.2,1.9-0.4,2.7C22.6,15.1,20.3,19.1,14.7,19.1z"/>
								<path class="st2" d="M24.7,30H4.7c-0.3,0-0.6-0.2-0.7-0.4C3.9,29.3,4,29,4.2,28.8c0,0,0.9-1.1,2.5-2.2
									c0.3-0.2,0.8-0.2,1.1,0.1c0.2,0.3,0.2,0.8-0.1,1c-0.3,0.3-0.7,0.5-0.9,0.7h16.2c-1.7-1.4-4.7-3.5-8.1-3.5
									c-1.4,0-2.9,0.4-4.5,1.1c-0.4,0.2-0.8,0-1-0.4c-0.2-0.4,0-0.8,0.4-1c1.7-0.8,3.5-1.3,5.1-1.3c5.8,0,10.3,5.1,10.5,5.3
									c0.2,0.2,0.2,0.5,0.1,0.8S25,30,24.7,30z"/>
								<rect x="12.2" y="18.3" class="st2" width="1.5" height="5.8"/>
								<path class="st2" d="M16.5,24.6c-0.4,0-0.8-0.3-0.8-0.8v-5.5c0-0.4,0.3-0.8,0.8-0.8s0.8,0.3,0.8,0.8v5.5
									C17.3,24.2,16.9,24.6,16.5,24.6z"/>
							</g>
						</g>
					</g>
				</g>
			</g>
		</g>
	</g>
</g>
</svg>
