<?xml version="1.0" encoding="UTF-8"?>
<svg width="52px" height="52px" viewBox="0 0 52 52" version="1.1" xmlns="http://www.w3.org/2000/svg" xmlns:xlink="http://www.w3.org/1999/xlink">
    <!-- Generator: Sketch 52.5 (67469) - http://www.bohemiancoding.com/sketch -->
    <title>Holiday</title>
    <desc>Created with Sketch.</desc>
    <defs>
        <polygon id="path-1" points="0 0.0003 32.476 0.0003 32.476 33.5943 0 33.5943"></polygon>
    </defs>
    <g id="Page-1" stroke="none" stroke-width="1" fill="none" fill-rule="evenodd">
        <g id="iPhone-XS" transform="translate(-24.000000, -893.000000)">
            <g id="第四屏" transform="translate(0.000000, 705.000000)">
                <g id="分组-4-copy-5" transform="translate(24.000000, 188.000000)">
                    <g id="分组-6">
                        <g id="Holiday">
                            <rect id="矩形" fill="#9AE1E2" x="0" y="0" width="52" height="52" rx="26"></rect>
                            <g id="分组" transform="translate(10.000000, 9.000000)">
                                <g id="Clip-2"></g>
                                <path d="M20.761,3.8558 C19.695,3.8568 18.829,2.9948 18.826,1.9278 C18.829,0.8618 19.695,-0.0012 20.761,-0.0002 C21.827,-0.0002 22.693,0.8628 22.696,1.9278 C22.696,2.9918 21.828,3.8558 20.761,3.8558 Z M20.761,1.0298 C20.264,1.0298 19.86,1.4328 19.86,1.9278 C19.859,2.4258 20.262,2.8298 20.761,2.8298 C21.259,2.8308 21.662,2.4268 21.662,1.9288 L21.662,1.9278 C21.661,1.4318 21.258,1.0298 20.761,1.0298 Z" id="合并形状" fill="#FFFFFF" opacity="0.5" mask="url(#mask-2)"></path>
                                <path d="M14.94,28.9058 C14.492,28.9068 14.129,28.5448 14.128,28.0968 C14.128,27.6498 14.491,27.2868 14.94,27.2868 C15.388,27.2868 15.752,27.6498 15.752,28.0968 C15.752,28.5438 15.388,28.9058 14.94,28.9058 Z" id="路径" fill="#FFFFFF" opacity="0.5" mask="url(#mask-2)"></path>
                                <path d="M26.648,17.6258 C26.919,17.7118 27.068,18.0018 26.982,18.2728 C26.323,20.3228 24.923,22.0098 23.144,22.9018 C22.889,23.0278 22.58,22.9258 22.45,22.6738 C22.323,22.4198 22.425,22.1108 22.678,21.9828 C22.679,21.9828 22.679,21.9818 22.68,21.9818 C24.214,21.2138 25.423,19.7468 25.998,17.9588 C26.087,17.6878 26.377,17.5398 26.648,17.6258 Z" id="路径" fill="#FFFFFF" opacity="0.6" mask="url(#mask-2)"></path>
                                <path d="M32.094,25.1868 C32.329,25.4818 32.476,25.8488 32.476,26.2538 C32.473,27.2078 31.699,27.9798 30.745,27.9788 C29.791,27.9798 29.016,27.2078 29.014,26.2538 C29.017,25.2998 29.791,24.5278 30.745,24.5288 C30.773,24.5288 30.799,24.5358 30.826,24.5358 C30.964,24.1648 31.376,23.9748 31.748,24.1118 C32.12,24.2498 32.31,24.6628 32.172,25.0338 C32.152,25.0878 32.126,25.1388 32.094,25.1868 Z" id="合并形状" fill="#FFFFFF" opacity="0.5" mask="url(#mask-2)"></path>
                                <path d="M2.897,25.0978 C2.743,25.0978 2.59,25.0608 2.449,24.9858 L0.507,23.9558 C0.044,23.7128 -0.135,23.1408 0.109,22.6778 C0.164,22.5728 0.238,22.4798 0.327,22.4028 L1.878,21.0508 C2.275,20.7038 2.877,20.7448 3.223,21.1408 C3.339,21.2748 3.416,21.4378 3.446,21.6128 L3.837,23.9948 C3.896,24.3518 3.747,24.7118 3.451,24.9208 C3.285,25.0398 3.092,25.0998 2.897,25.0998 L2.897,25.0978 Z M2.449,21.9208 L1.095,23.1018 L2.79,24.0008 L2.449,21.9208 Z" id="合并形状" fill="#FFFFFF" opacity="0.5" mask="url(#mask-2)"></path>
                                <path d="M5.383,10.0398 C4.99,10.0398 4.672,10.3558 4.672,10.7478 C4.672,11.1378 4.99,11.4558 5.383,11.4558 C5.774,11.4368 6.075,11.1038 6.056,10.7128 C6.038,10.3488 5.747,10.0568 5.383,10.0398 Z" id="路径" fill="#FFFFFF" opacity="0.6" mask="url(#mask-2)"></path>
                                <path d="M8.846,4.0948 C7.067,4.9858 5.668,6.6738 5.009,8.7238 C4.921,8.9938 5.07,9.2838 5.34,9.3708 C5.392,9.3878 5.446,9.3958 5.5,9.3958 C5.719,9.3958 5.922,9.2568 5.992,9.0388 C6.567,7.2488 7.777,5.7828 9.31,5.0148 C9.564,4.8878 9.668,4.5788 9.541,4.3248 C9.541,4.3238 9.54,4.3238 9.54,4.3228 C9.411,4.0688 9.101,3.9668 8.846,4.0948 Z" id="路径" fill="#FFFFFF" opacity="0.6" mask="url(#mask-2)"></path>
                                <path d="M29.791,15.5428 C29.791,20.9178 26.047,25.3218 21.329,25.6768 L22.316,27.2278 C22.47,27.4648 22.479,27.7678 22.341,28.0138 C22.202,28.2648 21.948,28.4138 21.662,28.4138 L21.197,28.4138 C21.191,28.9798 20.99,30.1198 19.635,31.0428 C18.746,31.6478 17.821,31.7608 17.006,31.8588 C15.906,31.9928 15.112,32.0908 14.603,33.2808 C14.491,33.5428 14.189,33.6648 13.927,33.5528 L13.924,33.5508 C13.663,33.4398 13.542,33.1388 13.654,32.8778 C14.394,31.1398 15.715,30.9788 16.88,30.8378 C17.647,30.7438 18.371,30.6558 19.052,30.1928 C20.033,29.5248 20.161,28.7488 20.166,28.4138 L19.861,28.4138 C19.579,28.4138 19.327,28.2678 19.188,28.0238 C19.048,27.7798 19.05,27.4878 19.196,27.2468 L20.125,25.6878 C17.395,25.4878 14.873,23.9108 13.288,21.3838 C13.285,21.3768 13.285,21.3708 13.282,21.3648 C12.824,21.4798 12.356,21.5548 11.884,21.5888 L12.872,23.1408 C13.026,23.3778 13.035,23.6808 12.897,23.9268 C12.759,24.1768 12.505,24.3268 12.218,24.3268 L11.753,24.3268 C11.77,25.0938 11.663,27.0818 10.193,28.0968 C9.249,28.7478 8.244,28.9628 7.273,29.1708 C5.398,29.5708 3.918,29.8868 3.221,33.1858 C3.17,33.4268 2.955,33.5938 2.717,33.5938 C2.68,33.5938 2.645,33.5908 2.61,33.5838 C2.331,33.5258 2.153,33.2528 2.211,32.9738 C3.045,29.0208 5.176,28.5658 7.056,28.1638 C7.968,27.9688 8.83,27.7848 9.605,27.2498 C10.674,26.5138 10.733,24.8988 10.719,24.3268 L10.417,24.3268 C10.135,24.3268 9.883,24.1808 9.744,23.9368 C9.604,23.6968 9.607,23.3988 9.751,23.1608 L10.686,21.5908 C5.957,21.2488 2.2,16.8408 2.2,11.4558 C2.2,5.8488 6.27,1.2878 11.273,1.2878 C14.344,1.2878 17.057,3.0088 18.7,5.6308 C19.359,5.4638 20.035,5.3748 20.717,5.3748 C25.72,5.3748 29.791,9.9358 29.791,15.5428 Z M3.233,11.4558 C3.233,16.4948 6.84,20.5938 11.273,20.5938 C15.707,20.5938 19.314,16.4948 19.314,11.4558 C19.314,6.4168 15.707,2.3168 11.273,2.3168 C6.84,2.3168 3.233,6.4168 3.233,11.4558 Z M20.717,24.6808 C25.151,24.6808 28.758,20.5818 28.758,15.5428 C28.758,10.5038 25.151,6.4048 20.717,6.4048 C20.215,6.4048 19.715,6.4588 19.224,6.5648 C19.938,8.0168 20.346,9.6828 20.346,11.4558 C20.346,15.8748 17.814,19.6328 14.294,21.0318 C15.811,23.3198 18.195,24.6808 20.717,24.6808 Z" id="合并形状" fill="#FFFFFF" mask="url(#mask-2)"></path>
                            </g>
                        </g>
                    </g>
                </g>
            </g>
        </g>
    </g>
</svg>